<?xml version="1.0" encoding="utf-8"?>
<!-- Generator: Adobe Illustrator 24.3.0, SVG Export Plug-In . SVG Version: 6.00 Build 0)  -->
<svg version="1.1" id="Layer_1" xmlns="http://www.w3.org/2000/svg" xmlns:xlink="http://www.w3.org/1999/xlink" x="0px" y="0px"
	 viewBox="0 0 124 123" style="enable-background:new 0 0 124 123;" xml:space="preserve">
<style type="text/css">
	.st0{fill:url(#SVGID_1_);}
	.st1{fill:#FFFFFF;}
	.st2{fill:#F1F3F6;}
	.st3{fill:#002552;}
	.st4{fill:#D4DAE3;}
</style>
<linearGradient id="SVGID_1_" gradientUnits="userSpaceOnUse" x1="61.81" y1="497.47" x2="61.81" y2="377.47" gradientTransform="matrix(1 0 0 1 0 -376)">
	<stop  offset="0" style="stop-color:#FEA33A"/>
	<stop  offset="1" style="stop-color:#F37D19"/>
</linearGradient>
<path class="st0" d="M61.8,121.5c33.1,0,60-26.9,60-60s-26.9-60-60-60s-60,26.9-60,60S28.7,121.5,61.8,121.5z"/>
<g>
	<path class="st1" d="M62.3,19.5c-5.8,0-10.6,4.7-10.6,10.6s4.8,10.5,10.6,10.5S72.9,36,72.9,30.1S68.1,19.5,62.3,19.5z"/>
	<path class="st1" d="M62.3,16c1.1,0,2-0.9,2-2V8.6c0-1.1-0.9-2-2-2s-2,0.9-2,2v5.5C60.3,15.1,61.2,16,62.3,16z"/>
	<path class="st1" d="M49.6,20.1c0.4,0.4,0.9,0.6,1.4,0.6s1-0.2,1.4-0.6c0.8-0.8,0.8-2,0-2.8l-3.8-3.9c-0.8-0.8-2-0.8-2.8,0
		s-0.8,2,0,2.8L49.6,20.1z"/>
	<path class="st1" d="M48.2,30.1c0-1.1-0.9-2-2-2h-5.5c-1.1,0-2,0.9-2,2c0,1.1,0.9,2,2,2h5.5C47.4,32,48.2,31.2,48.2,30.1z"/>
	<path class="st1" d="M49.6,40l-3.8,3.8c-0.8,0.8-0.8,2,0,2.8c0.4,0.4,0.9,0.6,1.4,0.6s1-0.2,1.4-0.6l3.8-3.8c0.8-0.8,0.8-2,0-2.8
		C51.6,39.2,50.3,39.2,49.6,40z"/>
	<path class="st1" d="M75,40c-0.8-0.8-2-0.8-2.8,0s-0.8,2,0,2.8l3.8,3.8c0.4,0.4,0.9,0.6,1.4,0.6c0.5,0,1-0.2,1.4-0.6
		c0.8-0.8,0.8-2,0-2.8L75,40z"/>
	<path class="st1" d="M83.8,28.1h-5.5c-1.1,0-2,0.9-2,2c0,1.1,0.9,2,2,2h5.5c1.1,0,2-0.9,2-2C85.7,29,84.8,28.1,83.8,28.1z"/>
	<path class="st1" d="M73.6,20.7c0.5,0,1-0.2,1.4-0.6l3.8-3.9c0.8-0.8,0.8-2,0-2.8s-2-0.8-2.8,0l-3.8,3.8c-0.8,0.8-0.8,2,0,2.8
		C72.6,20.6,73.1,20.7,73.6,20.7z"/>
	<path class="st1" d="M66.3,50.9h-2.9l2-6.3c0.1-0.2-0.1-0.5-0.3-0.5h-4.8c-0.2,0-0.3,0.1-0.3,0.3L58,54.4c-0.1,0.2,0.1,0.5,0.3,0.5
		h2.2l-1.2,6.7c-0.1,0.4,0.5,0.6,0.7,0.3l6.5-10.4C66.7,51.2,66.6,50.9,66.3,50.9z"/>
</g>
<path class="st2" d="M111.7,111.8H11.6c-2.4,0-2.6-3.1-0.6-6.6l20.1-35.8c0.7-1.2,2.3-2.2,3.6-2.2h54.6c1.3,0,2.9,1,3.5,2.2
	l19.5,35.8C114.3,108.7,114.1,111.8,111.7,111.8z"/>
<g>
	<polygon class="st3" points="48.6,91.5 75,91.5 72.5,81.4 51.1,81.4 	"/>
	<path class="st3" d="M93.8,77.7L90.1,71c-0.3-0.6-0.9-0.9-1.5-0.9h-15l1.8,7.6L93.8,77.7L93.8,77.7z"/>
	<path class="st3" d="M16.4,107.8h24.6L44,95.2H20.3l-5.5,10.1C14.2,106.4,15,107.8,16.4,107.8z"/>
	<polygon class="st3" points="47.3,81.4 27.9,81.4 22.3,91.5 44.9,91.5 	"/>
	<polygon class="st3" points="53.8,70.1 52,77.7 71.6,77.7 69.8,70.1 	"/>
	<polygon class="st3" points="95.8,81.4 76.3,81.4 78.8,91.5 101.3,91.5 	"/>
	<path class="st3" d="M108.8,105.3l-5.5-10.1H79.7l3.1,12.6h24.5C108.6,107.8,109.4,106.4,108.8,105.3z"/>
	<polygon class="st3" points="75.9,95.2 47.8,95.2 44.7,107.8 78.9,107.8 	"/>
	<path class="st3" d="M29.9,77.7h18.3l1.8-7.6H35c-0.6,0-1.2,0.3-1.5,0.9L29.9,77.7z"/>
</g>
<path class="st4" d="M16.6,111.8v9.2c0,1,0.8,1.8,1.8,1.8h86.6c1,0,1.8-0.8,1.8-1.8v-9.2H16.6z"/>
</svg>
