<svg width="90" height="90" viewBox="0 0 90 90" fill="none" xmlns="http://www.w3.org/2000/svg">
<circle cx="45" cy="45" r="45" fill="url(#paint0_linear)"/>
<rect x="55" y="50" width="2" height="16" rx="1" fill="#002552"/>
<rect x="29" y="64" width="32" height="26" fill="#F1F3F6"/>
<rect x="25" y="86" width="40" height="4" fill="#8092A8"/>
<rect x="33" y="68" width="10" height="18" fill="#002552"/>
<rect x="47" y="68" width="10" height="10" fill="#D4DAE3"/>
<path d="M45 44L65 64H25L45 44Z" fill="#8092A8"/>
<path d="M45 48L61 64H29L45 48Z" fill="#D4DAE3"/>
<path d="M58 52L62 36H54L58 22H49L53 0H68L64 13H70L65 29H73L58 52Z" fill="white"/>
<defs>
<linearGradient id="paint0_linear" x1="45" y1="90" x2="45" y2="-1.67766e-06" gradientUnits="userSpaceOnUse">
<stop stop-color="#FEA53B"/>
<stop offset="1" stop-color="#F27B19"/>
</linearGradient>
</defs>
</svg>
