<svg width="90" height="90" viewBox="0 0 90 90" fill="none" xmlns="http://www.w3.org/2000/svg">
<circle cx="45" cy="45" r="45" fill="url(#paint0_linear)"/>
<path d="M52 35C52 33.3431 53.3431 32 55 32H61C62.6569 32 64 33.3431 64 35V36H52V35Z" fill="#002552"/>
<rect x="17" y="26" width="4" height="14" rx="2" fill="#8092A8"/>
<rect x="69" y="26" width="4" height="14" rx="2" fill="#8092A8"/>
<rect x="41" y="55" width="8" height="2" rx="1" fill="#002552"/>
<rect x="46" y="52" width="8" height="2" rx="1" transform="rotate(90 46 52)" fill="#002552"/>
<rect x="42.8787" y="52.4644" width="8" height="2" rx="1" transform="rotate(45 42.8787 52.4644)" fill="#002552"/>
<rect x="48.5355" y="53.8787" width="8" height="2" rx="1" transform="rotate(135 48.5355 53.8787)" fill="#002552"/>
<path d="M15 39C15 37.3431 16.3431 36 18 36H72C73.6569 36 75 37.3431 75 39V86H15V39Z" fill="#F1F3F6"/>
<rect x="21" y="44" width="48" height="12" rx="2" fill="#D4DAE3"/>
<rect x="21" y="42" width="48" height="12" rx="2" fill="#8092A8"/>
<path d="M13 44C13 42.8954 13.8954 42 15 42V60C13.8954 60 13 59.1046 13 58V44Z" fill="#D4DAE3"/>
<rect x="45" y="64" width="24" height="2" rx="1" fill="#B8C2D0"/>
<rect x="45" y="70" width="24" height="2" rx="1" fill="#B8C2D0"/>
<rect x="45" y="76" width="24" height="2" rx="1" fill="#B8C2D0"/>
<path d="M30.1516 80L31.8058 72.4692H27L30.5554 62.7138L30.8089 62H35.3366L35.0427 62.7174L32.5603 69.0784H37L30.1516 80Z" fill="#002552"/>
<path d="M15 86H25L23 90H15V86Z" fill="#B8C2D0"/>
<path d="M75 86H65L67 90H75V86Z" fill="#B8C2D0"/>
<circle cx="61" cy="48" r="4" fill="white"/>
<circle cx="49" cy="48" r="4" fill="white"/>
<path d="M38 51H26C26 47.6863 28.6863 45 32 45C35.3137 45 38 47.6863 38 51Z" fill="white"/>
<defs>
<linearGradient id="paint0_linear" x1="45" y1="90" x2="45" y2="-1.67766e-06" gradientUnits="userSpaceOnUse">
<stop stop-color="#FEA53B"/>
<stop offset="1" stop-color="#F27B19"/>
</linearGradient>
</defs>
</svg>
