<svg width="90" height="90" viewBox="0 0 90 90" fill="none" xmlns="http://www.w3.org/2000/svg">
<circle cx="45" cy="45" r="45" fill="url(#paint0_linear)"/>
<path d="M17 18H59L73 32V90H17V18Z" fill="white"/>
<rect x="38" y="34" width="4" height="19" fill="#8092A8"/>
<rect x="35" y="45" width="17" height="4" fill="#8092A8"/>
<rect x="35" y="39" width="6" height="4" fill="#8092A8"/>
<path d="M40 30H47.5C50.5376 30 53 32.4624 53 35.5C53 38.5376 50.5376 41 47.5 41H40V30Z" stroke="#8092A8" stroke-width="4"/>
<path d="M61 20L73 32V34H61V20Z" fill="#D4DAE3"/>
<path d="M59 18L73 32H59V18Z" fill="#002552"/>
<rect x="27" y="60" width="36" height="2" fill="#B8C2D0"/>
<rect x="27" y="66" width="36" height="2" fill="#B8C2D0"/>
<rect x="27" y="72" width="36" height="2" fill="#B8C2D0"/>
<rect x="27" y="78" width="20" height="2" fill="#B8C2D0"/>
<defs>
<linearGradient id="paint0_linear" x1="45" y1="90" x2="45" y2="-1.67766e-06" gradientUnits="userSpaceOnUse">
<stop stop-color="#FEA53B"/>
<stop offset="1" stop-color="#F27B19"/>
</linearGradient>
</defs>
</svg>
