<svg width="90" height="90" viewBox="0 0 90 90" fill="none" xmlns="http://www.w3.org/2000/svg">
<circle cx="45" cy="45" r="45" fill="url(#paint0_linear)"/>
<rect x="20" y="49" width="50" height="38" fill="#B8C2D0"/>
<rect x="26" y="49" width="38" height="35" rx="3" fill="white"/>
<path d="M45 18L76 49H14L45 18Z" fill="#002552"/>
<path d="M45 24L70 49H20L45 24Z" fill="#B8C2D0"/>
<rect x="16" y="84" width="58" height="6" fill="#B8C2D0"/>
<path d="M53 70C53 65.2 45 54 45 54C45 54 37 65.52 37 70C37 74.48 40.2 78 45 78C49.8 78 53 74.8 53 70Z" fill="#002552"/>
<circle cx="42" cy="67" r="2" fill="white"/>
<defs>
<linearGradient id="paint0_linear" x1="45" y1="90" x2="45" y2="-1.67766e-06" gradientUnits="userSpaceOnUse">
<stop stop-color="#FEA53B"/>
<stop offset="1" stop-color="#F27B19"/>
</linearGradient>
</defs>
</svg>
