<svg class="app-svg" width="90" height="90" viewBox="0 0 90 90" fill="none" xmlns="http://www.w3.org/2000/svg">
    <circle cx="45" cy="45" r="45" fill="url(#paint0_linear)" />
    <rect x="18" y="50" width="12" height="40" rx="6" fill="#D4DAE3" />
    <path d="M18 82H30V84C30 87.3137 27.3137 90 24 90C20.6863 90 18 87.3137 18 84V82Z" fill="#002552" />
    <path d="M44.5 52.0001V54.0001H40.5L33 46.0001C30 46.0001 24 45.0001 24 39.0001V27.0001C24 22.2001 30 20.8334 33 21.0001V38.0001L42 46.0001C45 49.0001 44.5 52.0001 44.5 52.0001Z" fill="#D4DAE3" />
    <path d="M21.5 52.0001V54.0001H25.5L33 46.0001C36 46.0001 42 45.0001 42 39.0001V27.0001C42 22.2001 36 20.8334 33 21.0001V38.0001L24 46.0001C21 49.0001 21.5 52.0001 21.5 52.0001Z" fill="white" />
    <path d="M17 55C17 51.6863 19.6863 49 23 49H25C28.3137 49 31 51.6863 31 55V57H17V55Z" fill="white" />
    <rect width="12" height="40" rx="6" transform="matrix(-1 0 0 1 48 50)" fill="#D4DAE3" />
    <path d="M49 55C49 51.6863 46.3137 49 43 49H41C37.6863 49 35 51.6863 35 55V57H49V55Z" fill="white" />
    <path d="M36 82H48V84C48 87.3137 45.3137 90 42 90C38.6863 90 36 87.3137 36 84V82Z" fill="#002552" />
    <circle cx="33" cy="35" r="3" fill="#F27B19" />
    <rect width="15" height="40" rx="7.5" transform="matrix(-1 0 0 1 72 50)" fill="#D4DAE3" />
    <path d="M73 55C73 51.6863 70.3137 49 67 49H62C58.6863 49 56 51.6863 56 55V57H73V55Z" fill="white" />
    <path d="M67 35V49H62V35L59 33L62 21H67L70 33L67 35Z" fill="#F1F3F6" />
    <rect x="60" y="57" width="2" height="25" fill="#8092A8" />
    <rect x="67" y="57" width="2" height="25" fill="#8092A8" />
    <defs>
        <linearGradient id="paint0_linear" x1="45" y1="90" x2="45" y2="-1.67766e-06" gradientUnits="userSpaceOnUse">
            <stop stop-color="#FEA53B" />
            <stop offset="1" stop-color="#F27B19" />
        </linearGradient>
    </defs>
</svg>